<svg xmlns="http://www.w3.org/2000/svg" viewBox="0 0 1920 1080" preserveAspectRatio="xMidYMid slice">
  <defs>
    <linearGradient id="sky" x1="0" y1="0" x2="0" y2="1">
      <stop offset="0%" stop-color="#0b1b3f" />
      <stop offset="55%" stop-color="#102a54" />
      <stop offset="100%" stop-color="#1b2842" />
    </linearGradient>
    <linearGradient id="haze" x1="0" y1="0" x2="0" y2="1">
      <stop offset="0%" stop-color="#3aa0d8" stop-opacity="0.22" />
      <stop offset="100%" stop-color="#18233a" stop-opacity="0" />
    </linearGradient>
  </defs>

  <rect width="1920" height="1080" fill="url(#sky)" />
  <rect width="1920" height="1080" fill="url(#haze)" />

  <circle cx="1470" cy="220" r="100" fill="#b8d5ff" opacity="0.14" />

  <rect x="0" y="760" width="1920" height="320" fill="#121d33" />

  <g fill="#0d172a">
    <rect x="40" y="540" width="140" height="220" />
    <rect x="190" y="460" width="120" height="300" />
    <rect x="330" y="510" width="90" height="250" />
    <rect x="430" y="410" width="170" height="350" />
    <rect x="620" y="500" width="140" height="260" />
    <rect x="780" y="360" width="110" height="400" />
    <rect x="910" y="470" width="180" height="290" />
    <rect x="1110" y="390" width="100" height="370" />
    <rect x="1230" y="520" width="150" height="240" />
    <rect x="1400" y="350" width="130" height="410" />
    <rect x="1550" y="470" width="170" height="290" />
    <rect x="1740" y="430" width="130" height="330" />
  </g>

  <g fill="#16243d">
    <rect x="0" y="620" width="110" height="140" />
    <rect x="125" y="600" width="90" height="160" />
    <rect x="230" y="640" width="70" height="120" />
    <rect x="310" y="590" width="95" height="170" />
    <rect x="420" y="635" width="75" height="125" />
    <rect x="505" y="580" width="85" height="180" />
    <rect x="605" y="620" width="92" height="140" />
    <rect x="710" y="645" width="60" height="115" />
    <rect x="1040" y="620" width="90" height="140" />
    <rect x="1145" y="640" width="85" height="120" />
    <rect x="1240" y="610" width="100" height="150" />
    <rect x="1355" y="645" width="75" height="115" />
    <rect x="1445" y="615" width="88" height="145" />
    <rect x="1545" y="630" width="65" height="130" />
    <rect x="1620" y="610" width="85" height="150" />
    <rect x="1715" y="635" width="95" height="125" />
    <rect x="1825" y="600" width="80" height="160" />
  </g>
</svg>
